<svg width="404" height="192" viewBox="0 0 404 192" fill="none" xmlns="http://www.w3.org/2000/svg">
<mask id="mask0_8144_30151" style="mask-type:luminance" maskUnits="userSpaceOnUse" x="0" y="82" width="100" height="107">
<path d="M99.6329 123.147C99.6329 123.147 91.13 143.811 87.0014 151.232C82.7195 158.929 68.9582 187.764 68.9582 187.764H22.0589C22.0589 187.764 -11.6041 194.419 5.8973 149.552C23.3987 104.686 59.9954 39.5479 99.6308 123.147H99.6329Z" fill="white"/>
</mask>
<g mask="url(#mask0_8144_30151)">
<path d="M86.0287 203.396C99.3994 196.905 104.612 181.735 106.369 167.633C106.663 165.279 107.312 162.852 106.527 160.622C105.739 158.391 103.364 156.573 101.111 157.226C99.242 157.768 98.1625 159.67 96.9235 161.186C95.2751 163.207 93.0532 164.742 90.5983 165.557C88.9834 166.092 87.064 166.273 85.7221 165.227C83.8804 163.79 84.0862 160.964 84.4705 158.637C85.1887 154.301 85.9069 149.966 86.623 145.63C87.0073 143.303 87.3937 140.928 87.0199 138.601C86.6482 136.276 85.3735 133.968 83.2567 132.994C81.1399 132.022 78.1978 132.862 77.3662 135.067C77.0197 135.984 77.0575 136.999 76.8391 137.956C76.6207 138.912 75.9991 139.911 75.0394 140.033C74.0671 140.159 73.2397 139.351 72.6517 138.557C70.6231 135.823 69.4744 132.534 68.4286 129.281C67.3828 126.026 66.3958 122.708 64.6213 119.795C62.8489 116.885 60.1546 114.371 56.8513 113.653C53.5459 112.933 49.6651 114.426 48.3022 117.565C46.9351 120.713 48.319 124.348 49.9801 127.339C52.4455 131.774 55.5472 135.842 59.1613 139.378C59.8123 140.016 60.5179 140.705 60.6628 141.612C60.9211 143.246 59.2054 144.552 57.5905 144.819C55.7635 145.121 53.9071 144.641 52.0591 144.565C50.209 144.489 48.1153 144.979 47.1556 146.585C45.8221 148.813 47.416 151.625 49.1149 153.57C52.5169 157.465 56.5825 160.764 61.0828 163.274C62.6956 164.173 64.4113 165.011 65.602 166.432C66.7927 167.856 67.2925 170.082 66.1963 171.588C65.1001 173.098 62.8741 173.28 61.1332 172.663C59.3923 172.046 57.9412 170.815 56.3347 169.897C53.3275 168.179 49.159 167.743 46.6684 170.183C45.0325 171.787 44.5096 174.299 44.8477 176.575C45.1837 178.852 46.2694 180.937 47.4622 182.892C51.6328 189.725 57.4288 195.616 64.4428 199.371C71.4568 203.126 78.223 204.917 86.0308 203.394L86.0287 203.396Z" fill="#F3F4F6"/>
<path d="M84.1341 204.144C84.51 198.507 84.7599 201.431 83.8086 194.028C82.8699 186.621 81.1689 178.587 79.1004 170.246C78.5754 168.162 78.0567 166.104 77.5464 164.076C77.0319 162.051 76.5216 160.044 75.9 158.112C74.6757 154.242 73.2036 150.613 71.6979 147.211C70.1943 143.809 68.6424 140.634 67.1703 137.677C65.6898 134.722 64.2598 131.992 62.8507 129.562C60.0451 124.686 57.3214 121.03 55.3495 118.596C54.3667 117.376 53.5728 116.454 53.0247 115.835C52.7622 115.541 52.5543 115.31 52.3989 115.135C52.2561 114.98 52.1805 114.902 52.1742 114.909C52.1679 114.913 52.233 115.001 52.3653 115.167C52.5123 115.347 52.7097 115.587 52.9596 115.893C53.4846 116.53 54.2553 117.468 55.2192 118.703C57.147 121.167 59.8224 124.839 62.586 129.718C63.9762 132.152 65.3874 134.882 66.849 137.841C68.3064 140.804 69.8436 143.977 71.3346 147.377C72.8256 150.772 74.283 154.393 75.4968 158.244C76.11 160.168 76.614 162.156 77.1285 164.187C77.6388 166.216 78.1554 168.274 78.6804 170.355C80.7468 178.69 82.4562 186.701 83.4138 194.085C84.384 201.462 84.1656 198.51 83.8296 204.129L84.1362 204.148L84.1341 204.144Z" fill="#D1D5DB"/>
<path d="M75.781 158.072C75.8083 158.08 75.9448 157.74 76.1674 157.114C76.3921 156.49 76.6882 155.577 77.0347 154.443C77.7319 152.177 78.5908 149.014 79.5232 145.524C80.4556 142.032 81.3565 138.89 82.0873 136.641C82.4506 135.516 82.7509 134.606 82.9693 133.983C83.1835 133.357 83.2885 133.004 83.2612 132.991C83.2339 132.981 83.0764 133.311 82.8139 133.922C82.5472 134.529 82.2007 135.425 81.7996 136.543C80.9911 138.775 80.0398 141.914 79.1074 145.411C78.196 148.857 77.3728 151.975 76.7428 154.357C76.4509 155.432 76.2052 156.337 76.0078 157.064C75.8377 157.704 75.7537 158.061 75.7831 158.072H75.781Z" fill="#D1D5DB"/>
<path d="M46.7345 147.713C46.7282 147.742 47.1482 147.86 47.9063 148.047C48.6644 148.238 49.7606 148.507 51.1046 148.885C53.7989 149.618 57.4865 150.76 61.4996 152.197C65.5106 153.641 69.0869 155.105 71.6405 156.237C72.9236 156.793 73.9484 157.274 74.6582 157.6C75.368 157.93 75.767 158.1 75.7817 158.072C75.7964 158.045 75.4226 157.825 74.7338 157.447C74.045 157.073 73.037 156.55 71.7686 155.953C69.2381 154.746 65.6702 153.232 61.6466 151.781C57.6209 150.34 53.906 149.24 51.1823 148.582C49.8236 148.242 48.7127 148.018 47.9399 147.879C47.1692 147.745 46.7387 147.682 46.7324 147.713H46.7345Z" fill="#D1D5DB"/>
<path d="M83.5273 193.417C83.5399 193.425 83.6302 193.31 83.7898 193.085C83.9746 192.814 84.2014 192.485 84.4744 192.084C85.0645 191.212 85.8856 189.927 86.881 188.327C88.8718 185.126 91.4821 180.62 94.294 175.609C97.108 170.596 99.6742 166.071 101.594 162.835C102.532 161.262 103.305 159.968 103.881 159.006C104.126 158.589 104.33 158.244 104.496 157.961C104.632 157.719 104.7 157.589 104.685 157.581C104.672 157.572 104.582 157.688 104.42 157.914C104.235 158.185 104.009 158.515 103.736 158.916C103.146 159.788 102.324 161.073 101.329 162.673C99.3382 165.873 96.7279 170.38 93.9139 175.393C91.0999 180.405 88.5358 184.929 86.6143 188.167C85.6756 189.738 84.9028 191.034 84.3295 191.993C84.0838 192.411 83.8801 192.755 83.7121 193.039C83.5756 193.28 83.5084 193.411 83.521 193.419L83.5273 193.417Z" fill="#D1D5DB"/>
<path d="M45.7834 174.263C45.7771 174.278 45.9052 174.354 46.153 174.488C46.447 174.641 46.8082 174.83 47.2471 175.059C48.2593 175.576 49.6264 176.271 51.2875 177.117C54.6979 178.856 59.383 181.313 64.5553 184.033C69.7297 186.754 74.44 189.169 77.8882 190.839C79.6123 191.674 81.013 192.336 81.9916 192.773C82.4452 192.972 82.8169 193.136 83.1214 193.27C83.3818 193.38 83.5225 193.43 83.5288 193.415C83.5351 193.401 83.407 193.325 83.1592 193.189C82.8652 193.035 82.504 192.846 82.0651 192.617C81.0529 192.101 79.6879 191.406 78.0247 190.559C74.6122 188.821 69.9292 186.364 64.7548 183.642C59.5825 180.92 54.8722 178.505 51.424 176.838C49.6999 176.002 48.2992 175.341 47.3206 174.904C46.867 174.704 46.4953 174.541 46.1908 174.406C45.9304 174.297 45.7918 174.247 45.7834 174.261V174.263Z" fill="#D1D5DB"/>
</g>
<mask id="mask1_8144_30151" style="mask-type:luminance" maskUnits="userSpaceOnUse" x="245" y="0" width="159" height="192">
<path d="M330.321 191.214C330.321 191.214 304.802 131.267 299.649 124.549C294.493 117.831 287.488 96.8377 279.321 94.8448C279.321 94.8448 266.307 88.1626 252.256 88.4125C238.205 88.6624 249.627 84.5842 249.627 84.5842L263.464 42.2986C263.464 42.2986 340.347 -24.326 380.448 9.85778C420.55 44.0416 409.701 203.625 330.321 191.216V191.214Z" fill="white"/>
</mask>
<g mask="url(#mask1_8144_30151)">
<path d="M292.593 193.962C271.696 183.817 263.548 160.108 260.803 138.067C260.346 134.388 259.329 130.595 260.558 127.107C261.788 123.619 265.501 120.78 269.023 121.8C271.944 122.646 273.632 125.62 275.569 127.991C278.145 131.147 281.617 133.545 285.455 134.822C287.977 135.66 290.978 135.942 293.076 134.306C295.955 132.061 295.634 127.642 295.031 124.005C293.91 117.228 292.789 110.452 291.665 103.677C291.062 100.042 290.462 96.3272 291.043 92.6921C291.625 89.057 293.616 85.4513 296.923 83.9309C300.233 82.4105 304.832 83.7251 306.13 87.1712C306.67 88.6055 306.613 90.1931 306.955 91.6862C307.297 93.1814 308.268 94.7417 309.769 94.9328C311.29 95.1281 312.581 93.8639 313.501 92.627C316.672 88.3535 318.467 83.2148 320.101 78.1286C321.735 73.0424 323.281 67.8533 326.05 63.3026C328.82 58.7519 333.031 54.8249 338.195 53.7014C343.361 52.5758 349.426 54.911 351.557 59.8166C353.695 64.7369 351.53 70.4195 348.932 75.092C345.081 82.0241 340.23 88.3829 334.583 93.908C333.564 94.9055 332.462 95.9828 332.237 97.4003C331.832 99.9518 334.516 101.997 337.038 102.413C339.894 102.885 342.794 102.134 345.683 102.016C348.575 101.898 351.847 102.661 353.348 105.172C355.432 108.654 352.941 113.049 350.287 116.09C344.971 122.18 338.615 127.334 331.582 131.259C329.06 132.663 326.38 133.972 324.52 136.196C322.661 138.422 321.878 141.899 323.589 144.255C325.303 146.614 328.78 146.901 331.504 145.935C334.224 144.969 336.494 143.048 339.005 141.614C343.707 138.93 350.219 138.247 354.113 142.059C356.671 144.564 357.485 148.491 356.96 152.049C356.435 155.604 354.739 158.865 352.874 161.921C346.353 172.601 337.298 181.806 326.334 187.677C315.372 193.547 304.794 196.346 292.593 193.965V193.962Z" fill="#F3F4F6"/>
<path d="M295.556 195.13C294.968 186.319 294.577 190.891 296.064 179.32C297.53 167.742 300.188 155.186 303.422 142.147C304.244 138.89 305.052 135.673 305.852 132.502C306.656 129.34 307.454 126.2 308.425 123.18C310.338 117.13 312.639 111.458 314.991 106.143C317.341 100.826 319.767 95.8634 322.068 91.2413C324.38 86.6234 326.617 82.3583 328.82 78.5573C333.205 70.9385 337.461 65.2223 340.542 61.4171C342.079 59.5082 343.32 58.0676 344.175 57.1016C344.587 56.6417 344.91 56.2805 345.154 56.0096C345.376 55.766 345.496 55.6463 345.504 55.6547C345.515 55.6631 345.412 55.7996 345.206 56.0558C344.975 56.3372 344.669 56.7131 344.278 57.1919C343.459 58.1852 342.251 59.6531 340.748 61.583C337.734 65.4344 333.553 71.1716 329.236 78.7988C327.064 82.604 324.857 86.8712 322.572 91.4933C320.294 96.1238 317.891 101.086 315.563 106.397C313.232 111.706 310.953 117.361 309.059 123.382C308.099 126.387 307.312 129.497 306.507 132.67C305.709 135.839 304.901 139.056 304.082 142.311C300.852 155.34 298.181 167.86 296.686 179.399C295.169 190.93 295.512 186.315 296.037 195.099L295.558 195.128L295.556 195.13Z" fill="#D1D5DB"/>
<path d="M308.609 123.126C308.565 123.14 308.353 122.607 308.006 121.63C307.656 120.656 307.194 119.228 306.65 117.456C305.558 113.913 304.218 108.972 302.761 103.516C301.303 98.0579 299.896 93.1481 298.754 89.6327C298.187 87.8729 297.714 86.4533 297.376 85.4768C297.042 84.4982 296.879 83.948 296.921 83.9291C296.965 83.9123 297.21 84.4289 297.622 85.3823C298.038 86.3315 298.582 87.7322 299.205 89.4773C300.47 92.9654 301.954 97.8752 303.414 103.337C304.838 108.724 306.125 113.598 307.11 117.321C307.565 119.001 307.95 120.415 308.258 121.551C308.525 122.55 308.655 123.111 308.609 123.126Z" fill="#D1D5DB"/>
<path d="M354.012 106.932C354.02 106.979 353.367 107.161 352.181 107.453C350.996 107.751 349.283 108.173 347.181 108.761C342.968 109.906 337.206 111.691 330.933 113.938C324.662 116.198 319.076 118.484 315.082 120.255C313.079 121.126 311.476 121.874 310.366 122.386C309.257 122.901 308.633 123.167 308.61 123.125C308.589 123.083 309.173 122.737 310.248 122.147C311.325 121.563 312.9 120.744 314.885 119.814C318.839 117.926 324.417 115.561 330.706 113.293C336.998 111.04 342.804 109.322 347.061 108.293C349.186 107.762 350.923 107.411 352.128 107.193C353.334 106.981 354.004 106.886 354.014 106.932H354.012Z" fill="#D1D5DB"/>
<path d="M296.503 178.365C296.484 178.378 296.343 178.2 296.091 177.847C295.801 177.423 295.449 176.906 295.022 176.28C294.1 174.917 292.815 172.908 291.263 170.406C288.153 165.404 284.073 158.361 279.678 150.528C275.278 142.693 271.269 135.62 268.268 130.561C266.8 128.104 265.593 126.082 264.696 124.578C264.31 123.925 263.993 123.387 263.732 122.944C263.518 122.568 263.415 122.363 263.436 122.35C263.457 122.34 263.596 122.518 263.848 122.871C264.138 123.295 264.49 123.81 264.917 124.435C265.839 125.798 267.124 127.806 268.678 130.309C271.788 135.309 275.868 142.355 280.266 150.19C284.663 158.023 288.672 165.096 291.673 170.154C293.141 172.611 294.348 174.634 295.245 176.135C295.631 176.788 295.948 177.328 296.209 177.769C296.423 178.147 296.526 178.351 296.505 178.363L296.503 178.365Z" fill="#D1D5DB"/>
<path d="M355.496 148.43C355.506 148.451 355.307 148.573 354.918 148.783C354.458 149.022 353.893 149.318 353.209 149.675C351.627 150.482 349.492 151.57 346.894 152.893C341.562 155.612 334.241 159.449 326.156 163.701C318.071 167.956 310.707 171.732 305.316 174.34C302.622 175.644 300.431 176.679 298.903 177.362C298.195 177.673 297.611 177.929 297.139 178.139C296.731 178.309 296.513 178.389 296.502 178.366C296.492 178.345 296.691 178.223 297.078 178.013C297.538 177.773 298.103 177.479 298.787 177.122C300.368 176.316 302.504 175.228 305.102 173.905C310.434 171.188 317.756 167.349 325.841 163.094C333.924 158.842 341.287 155.066 346.678 152.458C349.372 151.152 351.562 150.118 353.093 149.436C353.801 149.125 354.383 148.867 354.857 148.659C355.265 148.489 355.481 148.409 355.493 148.43H355.496Z" fill="#D1D5DB"/>
</g>
<path d="M183.089 85.9244C183.316 85.9916 184.269 86.2394 184.498 86.3003C185.049 89.3054 185.727 92.0963 185.943 95.3996C185.943 95.3996 173.289 95.9204 163.326 97.3946C167.117 92.6339 172.89 83.0768 173.156 79.7021C175.834 82.598 179.259 84.7694 183.091 85.9244H183.089Z" fill="#D1D5DB"/>
<path d="M215.86 89.9915C206.259 91.0646 198.428 92.4443 198.428 92.4443L197.861 85.3841C198.311 85.1825 199.659 84.4496 200.092 84.2165C203.485 82.3958 206.326 79.7225 208.361 76.5137C210.566 84.479 213.259 86.3522 215.858 89.9915H215.86Z" fill="#D1D5DB"/>
<path d="M208.827 53.4209C208.827 53.4209 208.827 53.4146 208.818 53.4082" stroke="#D1D5DB" stroke-width="2" stroke-linecap="round" stroke-linejoin="round"/>
<path d="M211.007 70.582C210.759 71.4808 210.452 72.3544 210.093 73.207C209.608 74.3599 209.028 75.4666 208.363 76.5145C206.328 79.7233 203.486 82.3945 200.093 84.2173C199.66 84.4525 199.221 84.6709 198.772 84.8746C196.552 85.8889 194.127 86.5504 191.561 86.7856C188.868 87.0313 186.243 86.7856 183.772 86.1199C183.543 86.059 183.316 85.9939 183.089 85.9246C179.257 84.7675 175.832 82.5961 173.154 79.7023C172.642 79.15 172.159 78.5704 171.705 77.9677" stroke="#D1D5DB" stroke-width="2" stroke-linecap="round" stroke-linejoin="round"/>
<path d="M171.705 77.9648C170.949 76.9631 170.271 75.8837 169.689 74.7497C168.431 72.2843 167.606 69.5396 167.339 66.6164C167.224 65.3627 167.213 64.1174 167.31 62.9036C168.103 52.2398 176.499 43.3946 187.503 42.3887C196.428 41.5739 204.599 46.1351 208.818 53.4074" stroke="#D1D5DB" stroke-width="2" stroke-linecap="round" stroke-linejoin="round"/>
<path d="M208.826 53.4209C210.166 55.7309 211.111 58.3139 211.546 61.0943C211.621 61.5773 211.686 62.0687 211.73 62.5601C211.985 65.3363 211.716 68.0453 211.006 70.58" stroke="#D1D5DB" stroke-width="2" stroke-linecap="round" stroke-linejoin="round"/>
<path d="M167.31 62.9062C167.207 62.9084 167.104 62.9189 167.001 62.9273C163.637 63.2339 161.153 66.2096 161.461 69.5759C161.77 72.9422 164.75 75.416 168.114 75.1094C168.664 75.059 169.196 74.9393 169.687 74.7524" stroke="#D1D5DB" stroke-width="2" stroke-linecap="round" stroke-linejoin="round"/>
<path d="M210.094 73.2064C210.6 73.3093 211.131 73.3429 211.671 73.3009C211.717 73.303 211.767 73.2988 211.812 73.2946C215.176 72.988 217.654 70.0123 217.345 66.6481C217.064 63.5716 214.554 61.2322 211.547 61.0957" stroke="#D1D5DB" stroke-width="2" stroke-linecap="round" stroke-linejoin="round"/>
<path d="M211.783 61.1107C211.772 61.5769 211.755 62.0557 211.73 62.5429C211.73 62.5471 211.73 62.5555 211.73 62.5597C211.73 62.5597 208.525 63.4396 204.752 62.0872C203.924 61.7932 203.074 61.39 202.219 60.8461C200.583 59.8087 198.949 58.2589 197.511 55.9657C197.511 55.9657 181.305 63.7084 167.307 62.9419C167.206 62.9398 167.105 62.9335 167.002 62.9272H167C167 62.9272 162.888 40.3228 185.995 37.2022C185.995 37.2022 212.377 33.0799 211.78 61.1086L211.783 61.1107Z" fill="#D1D5DB"/>
<path d="M184.5 80.2161C184.5 80.2161 189.966 80.6718 198.44 78.9414" stroke="#D1D5DB" stroke-width="2" stroke-linecap="round" stroke-linejoin="round"/>
<path d="M68.959 187.763C74.1544 176.654 87.8821 147.954 101.303 125.393C108.355 113.537 124.107 106.357 140.132 102.012C143.561 101.084 147.003 100.284 150.374 99.5969C154.883 98.6771 159.265 97.9568 163.325 97.394C165.521 97.0895 167.623 96.8312 169.599 96.6107C169.763 96.5939 169.927 96.575 170.089 96.5582C179.022 95.5838 185.284 95.4158 185.895 95.4011C185.927 95.4011 185.944 95.4011 185.944 95.4011L184.959 88.7021L184.61 86.3291" stroke="#D1D5DB" stroke-width="2" stroke-miterlimit="10"/>
<path d="M197.74 85.3125L198.44 92.568C198.44 92.568 202.999 91.6881 210.067 90.7242C211.85 90.4806 213.791 90.2328 215.859 89.9913C217.396 89.8128 219.005 89.6364 220.67 89.4705C243.361 87.2004 276.576 86.6376 286.194 100.987C292.307 110.107 300.663 126.073 308.54 142.275C317.199 160.075 325.28 178.16 329.186 187.763" stroke="#D1D5DB" stroke-width="2" stroke-miterlimit="10"/>
<path d="M7.39062 187.764H388.501" stroke="#D1D5DB" stroke-width="2" stroke-miterlimit="10"/>
<path d="M178.282 39.123C154.528 39.123 135.271 58.38 135.271 82.1352C135.271 99.1788 145.188 113.908 159.564 120.868V136.137C164.842 136.179 170.764 136.557 175.778 137.701V125.072C176.606 125.122 177.442 125.145 178.282 125.145C202.037 125.145 221.294 105.888 221.294 82.1352C221.294 58.3821 202.037 39.123 178.282 39.123ZM178.282 115.053C160.102 115.053 145.364 100.315 145.364 82.1352C145.364 63.9555 160.102 49.2177 178.282 49.2177C196.461 49.2177 211.199 63.9555 211.199 82.1352C211.199 100.315 196.461 115.053 178.282 115.053Z" fill="#D1D5DB"/>
<path d="M127.595 187.763C127.355 185.237 127.187 181.415 127.882 178.395C128.332 176.45 129.138 174.84 130.516 174.121C130.516 174.121 123.737 166.807 131.133 157.687C131.133 157.687 125.824 140.923 145.365 136.733C145.365 136.733 151.764 136.069 159.565 136.137C164.842 136.179 170.764 136.557 175.779 137.701C180.254 138.722 184.007 140.351 185.943 142.894M185.943 142.894C185.943 142.894 182.369 148.212 179.639 154.837C176.743 161.855 173.576 173.662 182.205 178.187C187.386 180.904 192.086 176.196 194.505 172.038C198.182 165.717 199.308 157.949 199.898 150.784C199.898 150.784 201.063 142.894 185.943 142.894Z" stroke="#D1D5DB" stroke-width="2" stroke-miterlimit="10"/>
<path d="M184.72 179.151C184.816 183.297 184.333 186.027 183.783 187.763" stroke="#D1D5DB" stroke-width="2" stroke-miterlimit="10"/>
<path d="M143.213 154.234C143.213 154.234 162.785 156.99 179.639 154.837" stroke="#D1D5DB" stroke-width="2" stroke-miterlimit="10"/>
<path d="M143.213 171.245C143.213 171.245 155.796 173.293 177.119 171.789" stroke="#D1D5DB" stroke-width="2" stroke-miterlimit="10"/>
<path d="M124.721 149.552V179.239" stroke="#D1D5DB" stroke-width="2" stroke-miterlimit="10"/>
<path d="M127.883 178.396L124.722 179.225L92.1641 187.764" stroke="#D1D5DB" stroke-width="2" stroke-miterlimit="10"/>
<path d="M89.3594 146.753L124.721 161.386" stroke="#D1D5DB" stroke-width="2" stroke-miterlimit="10"/>
<path d="M268.361 168.065V160.86V149.552" stroke="#D1D5DB" stroke-width="2" stroke-miterlimit="10"/>
<path d="M268.361 160.86L308.541 142.275" stroke="#D1D5DB" stroke-width="2" stroke-miterlimit="10"/>
<path d="M290.473 187.763C290.403 180.613 288.016 167.233 270.993 167.958C270.13 167.996 269.252 168.031 268.362 168.065C264.884 168.202 261.226 168.325 257.519 168.435C254.18 168.533 250.803 168.624 247.488 168.703C241.967 168.836 236.612 168.943 231.876 169.025C224.745 169.149 219.022 169.22 216.258 169.254C215.024 169.268 213.871 169.867 213.155 170.873C211.097 173.767 207.777 180.27 212.441 187.765" stroke="#D1D5DB" stroke-width="2" stroke-miterlimit="10"/>
<path d="M227.916 187.764C218.342 177.329 231.876 169.025 231.876 169.025" stroke="#D1D5DB" stroke-width="2" stroke-miterlimit="10"/>
<path d="M243.596 187.764C232.548 178.226 247.488 168.704 247.488 168.704" stroke="#D1D5DB" stroke-width="2" stroke-miterlimit="10"/>
<path d="M256.215 187.764C249.682 177.125 257.52 168.436 257.52 168.436" stroke="#D1D5DB" stroke-width="2" stroke-miterlimit="10"/>
</svg>
