<svg width="18" height="14" viewBox="0 0 18 14" fill="none" xmlns="http://www.w3.org/2000/svg">
<path d="M14.292 5.41732L13.1253 4.20898L14.917 2.45898L16.0837 3.62565L14.292 5.41732ZM0.666992 13.6673V12.0007H17.3337V13.6673H0.666992ZM8.16699 2.83398V0.333984H9.83366V2.83398H8.16699ZM3.70866 5.37565L1.95866 3.58398L3.12533 2.41732L4.91699 4.20898L3.70866 5.37565ZM5.18783 8.66732H12.8128C12.4934 7.91732 11.9934 7.31315 11.3128 6.85482C10.6323 6.39648 9.86144 6.16732 9.00033 6.16732C8.13921 6.16732 7.36838 6.39648 6.68783 6.85482C6.00727 7.31315 5.50727 7.91732 5.18783 8.66732ZM3.16699 10.334C3.16699 8.70898 3.73296 7.33051 4.86491 6.19857C5.99685 5.06662 7.37533 4.50065 9.00033 4.50065C10.6253 4.50065 12.0038 5.06662 13.1357 6.19857C14.2677 7.33051 14.8337 8.70898 14.8337 10.334H3.16699Z" fill="#6B7280"/>
</svg>
