<svg width="20" height="18" viewBox="0 0 20 18" fill="none" xmlns="http://www.w3.org/2000/svg">
<path d="M10.9163 17.1667H8.74967L9.16634 16.9062C9.44412 16.7326 9.7462 16.5382 10.0726 16.3229C10.399 16.1076 10.7011 15.9132 10.9788 15.7396L11.3955 15.4792C12.5205 15.3958 13.5587 15.0556 14.5101 14.4583C15.4615 13.8611 16.215 13.0625 16.7705 12.0625C15.5761 11.9514 14.4441 11.6493 13.3747 11.1562C12.3052 10.6632 11.3469 9.99306 10.4997 9.14583C9.65245 8.29861 8.97884 7.34028 8.47884 6.27083C7.97884 5.20139 7.68023 4.06944 7.58301 2.875C6.51356 3.47222 5.67676 4.29514 5.07259 5.34375C4.46842 6.39236 4.16634 7.52778 4.16634 8.75V9L3.91634 9.11458C3.74967 9.19097 3.56565 9.27083 3.36426 9.35417C3.16287 9.4375 2.97884 9.51736 2.81217 9.59375L2.56217 9.70833C2.5344 9.55556 2.51704 9.39583 2.51009 9.22917C2.50315 9.0625 2.49967 8.90278 2.49967 8.75C2.49967 6.72222 3.14551 4.93403 4.43717 3.38542C5.72884 1.83681 7.37467 0.875 9.37467 0.5C9.12467 1.875 9.20106 3.21875 9.60384 4.53125C10.0066 5.84375 10.7011 6.99306 11.6872 7.97917C12.6733 8.96528 13.8226 9.65972 15.1351 10.0625C16.4476 10.4653 17.7913 10.5417 19.1663 10.2917C18.8052 12.2917 17.8469 13.9375 16.2913 15.2292C14.7358 16.5208 12.9441 17.1667 10.9163 17.1667ZM4.99967 15.5H8.74967C9.0969 15.5 9.39204 15.3785 9.63509 15.1354C9.87815 14.8924 9.99967 14.5972 9.99967 14.25C9.99967 13.9028 9.88162 13.6076 9.64551 13.3646C9.4094 13.1215 9.12467 13 8.79134 13H7.70801L7.29134 12C7.0969 11.5417 6.79134 11.1771 6.37467 10.9062C5.95801 10.6354 5.49967 10.5 4.99967 10.5C4.30523 10.5 3.71495 10.7396 3.22884 11.2187C2.74273 11.6979 2.49967 12.2917 2.49967 13C2.49967 13.6944 2.74273 14.2847 3.22884 14.7708C3.71495 15.2569 4.30523 15.5 4.99967 15.5ZM4.99967 17.1667C3.8469 17.1667 2.86426 16.7604 2.05176 15.9479C1.23926 15.1354 0.833008 14.1528 0.833008 13C0.833008 11.8472 1.23926 10.8646 2.05176 10.0521C2.86426 9.23958 3.8469 8.83333 4.99967 8.83333C5.83301 8.83333 6.59342 9.05903 7.28092 9.51042C7.96842 9.96181 8.47884 10.5694 8.81217 11.3333C9.60384 11.3611 10.2775 11.6562 10.833 12.2187C11.3886 12.7812 11.6663 13.4583 11.6663 14.25C11.6663 15.0556 11.3816 15.7431 10.8122 16.3125C10.2427 16.8819 9.55523 17.1667 8.74967 17.1667H4.99967Z" fill="#6B7280"/>
</svg>
