<svg width="20" height="18" viewBox="0 0 20 18" fill="none" xmlns="http://www.w3.org/2000/svg">
<path d="M9.16634 4.16536V0.832031H10.833V4.16536H9.16634ZM14.708 6.45703L13.5413 5.29036L15.8955 2.91536L17.0622 4.10286L14.708 6.45703ZM15.833 10.832V9.16536H19.1663V10.832H15.833ZM15.8955 17.0612L13.5413 14.707L14.708 13.5404L17.083 15.8737L15.8955 17.0612ZM5.29134 6.45703L2.93717 4.10286L4.12467 2.91536L6.45801 5.29036L5.29134 6.45703ZM4.99967 15.832H8.74967C9.0969 15.832 9.39204 15.7105 9.63509 15.4674C9.87815 15.2244 9.99967 14.9293 9.99967 14.582C9.99967 14.2348 9.88162 13.9397 9.64551 13.6966C9.4094 13.4536 9.11773 13.332 8.77051 13.332H7.70801L7.29134 12.332C7.0969 11.8737 6.79134 11.5091 6.37467 11.2383C5.95801 10.9674 5.49967 10.832 4.99967 10.832C4.30523 10.832 3.71495 11.0751 3.22884 11.5612C2.74273 12.0473 2.49967 12.6376 2.49967 13.332C2.49967 14.0265 2.74273 14.6168 3.22884 15.1029C3.71495 15.589 4.30523 15.832 4.99967 15.832ZM4.99967 17.4987C3.8469 17.4987 2.86426 17.0924 2.05176 16.2799C1.23926 15.4674 0.833008 14.4848 0.833008 13.332C0.833008 12.1793 1.23926 11.1966 2.05176 10.3841C2.86426 9.57161 3.8469 9.16536 4.99967 9.16536C5.83301 9.16536 6.59342 9.39106 7.28092 9.84245C7.96842 10.2938 8.47884 10.9015 8.81217 11.6654C9.61773 11.6654 10.2948 11.964 10.8434 12.5612C11.392 13.1584 11.6663 13.8737 11.6663 14.707C11.6386 15.4987 11.3434 16.1619 10.7809 16.6966C10.2184 17.2313 9.54134 17.4987 8.74967 17.4987H4.99967ZM11.6663 14.707C11.5969 14.4293 11.5275 14.1584 11.458 13.8945C11.3886 13.6306 11.3191 13.3598 11.2497 13.082C11.8747 12.8181 12.3781 12.4084 12.7601 11.8529C13.142 11.2973 13.333 10.6793 13.333 9.9987C13.333 9.08203 13.0066 8.29731 12.3538 7.64453C11.7011 6.99175 10.9163 6.66536 9.99967 6.66536C9.16634 6.66536 8.43717 6.9362 7.81217 7.47786C7.18717 8.01953 6.81912 8.70703 6.70801 9.54036C6.43023 9.47092 6.14551 9.40842 5.85384 9.35286C5.56217 9.29731 5.27745 9.23481 4.99967 9.16536C5.19412 7.94314 5.76704 6.94314 6.71842 6.16536C7.66981 5.38759 8.76356 4.9987 9.99967 4.9987C11.3886 4.9987 12.5691 5.48481 13.5413 6.45703C14.5136 7.42925 14.9997 8.60981 14.9997 9.9987C14.9997 11.0681 14.6941 12.0299 14.083 12.8841C13.4719 13.7383 12.6663 14.3459 11.6663 14.707Z" fill="#6B7280"/>
</svg>
